<?xml version="1.0" encoding="UTF-8"?><svg id="Layer_2" xmlns="http://www.w3.org/2000/svg" viewBox="0 0 45.87 45.86"><g id="Layer_1-2"><rect id="shape" x="19.19" y="1.58" width="7.65" height="7.65" transform="translate(2.92 17.86) rotate(-45)"/><polygon points="9.67 32.68 13.44 36.45 22.12 27.77 21.15 26.79 18.2 23.84 13.44 28.6 7.85 23.01 13.45 17.22 21.1 17.22 21.1 17.22 13.45 9.57 13.45 9.57 13.45 9.58 13.44 9.57 9.67 13.33 0 23.01 9.67 32.68"/><polygon points="36.19 13.17 32.43 9.41 23.74 18.09 24.72 19.06 27.67 22.01 32.43 17.26 38.01 22.84 32.42 28.63 24.76 28.63 24.76 28.63 32.41 36.28 32.42 36.28 32.42 36.27 32.43 36.28 36.19 32.52 45.87 22.84 36.19 13.17"/><polygon id="shape-2" points="22.85 35.05 20.38 37.52 17.44 40.46 22.85 45.86 28.26 40.46 22.85 35.05"/></g></svg>