<?xml version="1.0" encoding="UTF-8"?><svg id="Layer_2" xmlns="http://www.w3.org/2000/svg" viewBox="0 0 132.79 28.35"><g id="Layer_1-2"><path d="M43.51,8.34c-5.73,0-10.41,4.5-10.41,9.99s4.68,10.02,10.41,10.02,10.48-4.47,10.48-10.02-4.75-9.99-10.48-9.99ZM43.51,23.81c-3,0-5.27-2.3-5.27-5.48s2.34-5.41,5.27-5.41,5.27,2.34,5.27,5.41-2.3,5.48-5.27,5.48Z"/><path d="M63.94,1.23l-5.17,4.61v2.5h-2.34v4.57h2.34v10.65c0,4.05,2.48,4.78,6.53,4.78.73,0,1.71-.07,2.34-.14v-4.4c-.31.03-.73.07-1.33.07-2.34,0-2.37-1.82-2.37-2.86v-8.1h3.84v-4.57h-3.84V1.23Z"/><rect x="71.46" y="9.18" width="5.24" height="19.17"/><path d="M91.24,9.45h-3.46c0-1.29.14-3.04,2.48-3.28.66-.07,1.36,0,1.96.17l.28-4.23c-.84-.21-1.64-.31-2.31-.31-4.64,0-7.47,2.58-7.65,7.65h-2.16v4.47h2.16v14.42h5.24v-14.42h3.46v-4.47Z"/><rect x="71.44" y="1.09" width="5.29" height="5.29" transform="translate(16.98 51.08) rotate(-42.55)"/><polygon points="28.27 28.34 28.27 2.19 23.59 2.19 13.86 18.61 4.59 2.19 0 2.19 0 28.34 4.87 28.34 4.87 12.83 13.86 28.34 23.32 12.83 23.32 28.34 28.27 28.34"/><path d="M126.85,2.12h-23.2c-3.27,0-5.94,2.67-5.94,5.94v14.33c0,3.27,2.67,5.94,5.94,5.94h23.2c3.27,0,5.94-2.67,5.94-5.94v-14.33c0-3.27-2.67-5.94-5.94-5.94ZM118.36,16.63c0,4.18-2.86,6.9-7.28,6.9s-7.33-2.73-7.33-6.9V6.93h3.53v9.69c0,3.08,2.37,3.86,3.8,3.86s3.75-.78,3.75-3.86V6.93h3.53v9.69ZM126.74,23.54h-3.59V6.94h3.59v16.6Z"/></g></svg>